<svg version="1.1" preserveAspectRatio="none" xmlns="http://www.w3.org/2000/svg" width="500" height="500" viewBox="0 0 500 500"><rect width="100%" height="100%" fill="#D22626" fill-opacity="1"/><svg viewBox="38.1504 109.0901 395.9215 234.7394" width="333" height="197.4336331823354" x="83.5px" y="151.2832px" xmlns="http://www.w3.org/2000/svg" xmlns:xlink="http://www.w3.org/1999/xlink" preserveAspectRatio="none"><defs></defs><style>.aLgOaV3zRcolors-3 {fill:#B15400;fill-opacity:1;}.aLgOaV3zRcolors-4 {fill:#FF8484;fill-opacity:1;}.aLgOaV3zRcolors-5 {fill:#E74949;fill-opacity:1;}.aLgOaV3zRcolors-6 {fill:#FDB3B3;fill-opacity:1;}.aLgOaV3zRcolors-7 {fill:#FC924B;fill-opacity:1;}.companyName {fill:#FFFFFF;fill-opacity:1;}.icon1 {fill:#FFFFFF;fill-opacity:1;}.icon2 {fill:#393939;fill-opacity:1;}.icon3 {fill:#FF3737;fill-opacity:1;}.icon3-str {stroke:#FF3737;stroke-opacity:1;}</style><g opacity="1" transform="rotate(0 38.1504 309.8295)">
<svg width="395.9215" height="34" x="38.1504" y="309.8295" version="1.1" preserveAspectRatio="none" viewBox="2.5781 -28.4078 335.3516 28.798500000000004">
  <g transform="matrix(1 0 0 1 0 0)" class="companyName"><path id="id-D6z1nYkh11" d="M30.59-14.00L30.59-2.56Q30.59-2.01 30.39-1.54Q30.20-1.07 29.85-0.73Q29.51-0.39 29.04-0.20Q28.57 0 28.03 0L28.03 0L9.71 0Q9.00 0 8.19-0.17Q7.38-0.33 6.59-0.68Q5.80-1.04 5.08-1.59Q4.36-2.15 3.80-2.94Q3.24-3.73 2.91-4.78Q2.58-5.82 2.58-7.13L2.58-7.13L2.58-20.88Q2.58-21.58 2.74-22.39Q2.91-23.20 3.26-23.99Q3.61-24.79 4.18-25.51Q4.75-26.23 5.54-26.79Q6.33-27.34 7.36-27.68Q8.40-28.01 9.71-28.01L9.71-28.01L30.35-28.01L30.35-22.93L9.71-22.93Q8.71-22.93 8.18-22.40Q7.66-21.88 7.66-20.84L7.66-20.84L7.66-7.13Q7.66-6.15 8.19-5.62Q8.73-5.08 9.71-5.08L9.71-5.08L25.51-5.08L25.51-11.45L11.99-11.45L11.99-16.56L28.03-16.56Q28.57-16.56 29.04-16.36Q29.51-16.15 29.85-15.80Q30.20-15.45 30.39-14.99Q30.59-14.53 30.59-14.00L30.59-14.00Z M63.36-25.45L63.36 0L58.28 0L58.28-6.88L40.43-6.88L40.43 0L35.35 0L35.35-14.00Q35.35-17.07 36.41-19.65Q37.46-22.23 39.34-24.08Q41.21-25.94 43.77-26.97Q46.33-28.01 49.36-28.01L49.36-28.01L60.80-28.01Q61.33-28.01 61.80-27.81Q62.27-27.62 62.62-27.27Q62.97-26.91 63.16-26.45Q63.36-25.98 63.36-25.45L63.36-25.45ZM40.43-14.00L40.43-11.95L58.28-11.95L58.28-22.93L49.36-22.93Q49.12-22.93 48.37-22.86Q47.62-22.79 46.63-22.52Q45.64-22.25 44.55-21.68Q43.46-21.11 42.54-20.12Q41.62-19.12 41.03-17.63Q40.43-16.13 40.43-14.00L40.43-14.00Z M101.86-25.84L101.86 0L96.74 0L96.74-16.68L87.73-0.84Q87.40-0.23 86.81 0.08Q86.21 0.39 85.53 0.39L85.53 0.39Q84.86 0.39 84.29 0.08Q83.71-0.23 83.38-0.84L83.38-0.84L74.34-16.68L74.34 0L69.26 0L69.26-25.84Q69.26-26.72 69.78-27.40Q70.29-28.09 71.13-28.32L71.13-28.32Q71.54-28.42 71.95-28.39Q72.36-28.36 72.74-28.21Q73.13-28.07 73.44-27.80Q73.75-27.54 73.96-27.17L73.96-27.17L85.53-7.07L97.09-27.17Q97.54-27.91 98.33-28.22Q99.12-28.54 99.98-28.32L99.98-28.32Q100.80-28.09 101.33-27.40Q101.86-26.72 101.86-25.84L101.86-25.84Z M112.87-28.01L112.87 0L107.79 0L107.79-28.01L112.87-28.01Z M146.80-28.01L146.80-2.17Q146.80-1.62 146.59-1.15Q146.39-0.68 146.04-0.34Q145.70 0 145.23 0.20Q144.77 0.39 144.24 0.39L144.24 0.39Q143.77 0.39 143.29 0.21Q142.81 0.04 142.44-0.35L142.44-0.35L123.89-19.73L123.89 0L118.81 0L118.81-25.84Q118.81-26.62 119.25-27.26Q119.69-27.89 120.37-28.20L120.37-28.20Q121.09-28.50 121.86-28.35Q122.62-28.20 123.16-27.64L123.16-27.64L141.72-8.28L141.72-28.01L146.80-28.01Z M180.33-14.00L180.33-2.56Q180.33-2.01 180.14-1.54Q179.94-1.07 179.60-0.73Q179.26-0.39 178.79-0.20Q178.32 0 177.77 0L177.77 0L159.45 0Q158.75 0 157.94-0.17Q157.13-0.33 156.34-0.68Q155.55-1.04 154.82-1.59Q154.10-2.15 153.54-2.94Q152.99-3.73 152.66-4.78Q152.32-5.82 152.32-7.13L152.32-7.13L152.32-20.88Q152.32-21.58 152.49-22.39Q152.66-23.20 153.01-23.99Q153.36-24.79 153.93-25.51Q154.49-26.23 155.28-26.79Q156.07-27.34 157.11-27.68Q158.14-28.01 159.45-28.01L159.45-28.01L180.10-28.01L180.10-22.93L159.45-22.93Q158.46-22.93 157.93-22.40Q157.40-21.88 157.40-20.84L157.40-20.84L157.40-7.13Q157.40-6.15 157.94-5.62Q158.48-5.08 159.45-5.08L159.45-5.08L175.25-5.08L175.25-11.45L161.74-11.45L161.74-16.56L177.77-16.56Q178.32-16.56 178.79-16.36Q179.26-16.15 179.60-15.80Q179.94-15.45 180.14-14.99Q180.33-14.53 180.33-14.00L180.33-14.00Z M212.54-8.24L212.54-8.24Q212.54-6.74 212.16-5.54Q211.78-4.34 211.15-3.42Q210.53-2.50 209.69-1.86Q208.85-1.21 207.95-0.80Q207.05-0.39 206.12-0.20Q205.20 0 204.38 0L204.38 0L184.79 0L184.79-5.08L204.38-5.08Q205.84-5.08 206.65-5.94Q207.46-6.80 207.46-8.24L207.46-8.24Q207.46-8.95 207.25-9.53Q207.03-10.12 206.63-10.55Q206.23-10.98 205.65-11.21Q205.08-11.45 204.38-11.45L204.38-11.45L192.70-11.45Q191.46-11.45 190.04-11.88Q188.61-12.32 187.39-13.30Q186.17-14.28 185.36-15.86Q184.55-17.44 184.55-19.73L184.55-19.73Q184.55-22.01 185.36-23.58Q186.17-25.16 187.39-26.14Q188.61-27.13 190.04-27.57Q191.46-28.01 192.70-28.01L192.70-28.01L209.98-28.01L209.98-22.93L192.70-22.93Q191.25-22.93 190.44-22.05Q189.63-21.17 189.63-19.73L189.63-19.73Q189.63-18.26 190.44-17.41Q191.25-16.56 192.70-16.56L192.70-16.56L204.38-16.56L204.41-16.56Q205.23-16.54 206.15-16.34Q207.07-16.13 207.98-15.70Q208.89-15.27 209.71-14.62Q210.53-13.96 211.16-13.05Q211.80-12.13 212.17-10.94Q212.54-9.75 212.54-8.24Z M241.78-28.01L241.78-22.93L230.59-22.93L230.59 0L225.51 0L225.51-22.93L214.30-22.93L214.30-28.01L241.78-28.01Z M274.51-16.68L274.51-11.33Q274.51-8.77 273.63-6.62Q272.75-4.47 271.19-2.91Q269.63-1.35 267.49-0.48Q265.35 0.39 262.83 0.39L262.83 0.39L255.96 0.39Q253.44 0.39 251.29-0.48Q249.14-1.35 247.58-2.91Q246.02-4.47 245.13-6.62Q244.24-8.77 244.24-11.33L244.24-11.33L244.24-16.68Q244.24-19.22 245.13-21.38Q246.02-23.54 247.58-25.09Q249.14-26.64 251.29-27.52Q253.44-28.40 255.96-28.40L255.96-28.40L262.83-28.40Q265.35-28.40 267.49-27.52Q269.63-26.64 271.19-25.09Q272.75-23.54 273.63-21.38Q274.51-19.22 274.51-16.68L274.51-16.68ZM269.43-11.33L269.43-16.68Q269.43-18.18 268.96-19.40Q268.48-20.63 267.61-21.49Q266.74-22.36 265.52-22.84Q264.30-23.32 262.83-23.32L262.83-23.32L255.96-23.32Q254.47-23.32 253.25-22.84Q252.03-22.36 251.15-21.49Q250.27-20.63 249.79-19.40Q249.32-18.18 249.32-16.68L249.32-16.68L249.32-11.33Q249.32-9.82 249.79-8.60Q250.27-7.38 251.15-6.51Q252.03-5.64 253.25-5.17Q254.47-4.69 255.96-4.69L255.96-4.69L262.79-4.69Q264.28-4.69 265.50-5.17Q266.72-5.64 267.60-6.51Q268.48-7.38 268.96-8.60Q269.43-9.82 269.43-11.33L269.43-11.33Z M307.52-21.84L307.52-18.59Q307.52-16.86 307.09-15.49Q306.66-14.12 305.93-13.08Q305.20-12.03 304.24-11.29Q303.28-10.55 302.24-10.07Q301.19-9.59 300.13-9.38Q299.06-9.16 298.13-9.16L298.13-9.16L308.73 0L300.88 0L290.29-9.16L286.64-9.16L286.64-14.24L298.13-14.24Q299.08-14.32 299.87-14.64Q300.66-14.96 301.24-15.51Q301.82-16.05 302.13-16.83Q302.44-17.60 302.44-18.59L302.44-18.59L302.44-21.80Q302.44-22.23 302.33-22.45Q302.23-22.68 302.06-22.78Q301.89-22.89 301.71-22.91Q301.52-22.93 301.37-22.93L301.37-22.93L284.61-22.93L284.61 0L279.53 0L279.53-25.45Q279.53-25.98 279.73-26.45Q279.92-26.91 280.26-27.27Q280.61-27.62 281.07-27.81Q281.54-28.01 282.09-28.01L282.09-28.01L301.37-28.01Q303.07-28.01 304.24-27.39Q305.41-26.78 306.14-25.85Q306.88-24.92 307.20-23.85Q307.52-22.77 307.52-21.84L307.52-21.84Z M335.64-16.56L335.64-11.45L319.61-11.45L319.61-16.56L335.64-16.56ZM337.93-5.08L337.93 0L319.61 0Q318.55 0 317.30-0.37Q316.05-0.74 314.99-1.59Q313.93-2.44 313.21-3.80Q312.50-5.16 312.50-7.13L312.50-7.13L312.50-25.45Q312.50-25.98 312.70-26.45Q312.89-26.91 313.23-27.27Q313.57-27.62 314.04-27.81Q314.51-28.01 315.06-28.01L315.06-28.01L337.93-28.01L337.93-22.93L317.58-22.93L317.58-7.13Q317.58-6.13 318.11-5.61Q318.63-5.08 319.65-5.08L319.65-5.08L337.93-5.08Z"/></g>
</svg>
</g><g opacity="1" transform="rotate(0 137.1308 109.0901)">
<svg width="197.9607" height="170.7394" x="137.1308" y="109.0901" version="1.1" preserveAspectRatio="none" viewBox="10.343460083007812 15.793000221252441 79.31600189208984 68.40934753417969">
  <g transform="matrix(1 0 0 1 0 0)" class="icon1"><g><path d="m50 15.793c-0.15234 0-0.27734 0.125-0.27734 0.27734v20.398h-5.9062c-18.457 0-33.473 10.707-33.473 23.867 0 13.16 3.875 23.867 8.6406 23.867 3.0547 0 8.1484-2.8594 13.25-7.125 2.3867 1.8789 5.3516 2.9141 8.3789 2.9141h18.777c3.0273 0 5.9922-1.0391 8.3789-2.9141 5.1016 4.2656 10.191 7.125 13.25 7.125 4.7617 0 8.6406-10.707 8.6406-23.867-0.003906-13.16-15.02-23.867-33.477-23.867h-5.9062v-20.398c0-0.15234-0.125-0.27734-0.27734-0.27734zm9.3906 63.648h-18.781c-2.8633 0-5.668-0.97266-7.9453-2.7266 2.5391-2.1641 5.0664-4.6602 7.3281-7.3281h20.008c2.2656 2.668 4.7891 5.1641 7.3281 7.3281-2.2734 1.7539-5.0742 2.7266-7.9375 2.7266zm-3.207-42.418c18.152 0 32.918 10.457 32.918 23.312 0 12.637-3.7031 23.312-8.082 23.312-4.543 0-13.816-6.6055-20.672-14.723-0.054687-0.0625-0.13281-0.097656-0.21094-0.097656l-20.27 0.003906c-0.082032 0-0.16016 0.035157-0.21094 0.097657-6.8594 8.1172-16.133 14.723-20.672 14.723-4.3828 0-8.082-10.676-8.082-23.312 0-12.855 14.766-23.312 32.918-23.312z"></path><path d="m73.891 68.449c1.6133 0 2.9258-1.3125 2.9258-2.9297 0-1.6133-1.3125-2.9297-2.9258-2.9297s-2.9258 1.3125-2.9258 2.9297c-0.003906 1.6133 1.3086 2.9297 2.9258 2.9297zm0-5.3008c1.3086 0 2.3711 1.0625 2.3711 2.3711 0 1.3086-1.0664 2.3711-2.3711 2.3711-1.3086 0-2.3711-1.0625-2.3711-2.3711-0.003906-1.3086 1.0625-2.3711 2.3711-2.3711z"></path><path d="m72.211 58.602h3.3555c0.64453 0 1.168-0.52344 1.168-1.1641v-3.3555c0-0.64453-0.52344-1.168-1.168-1.168h-3.3555c-0.64453 0-1.168 0.52344-1.168 1.168v3.3555c0.003906 0.64062 0.52344 1.1641 1.168 1.1641zm-0.60938-4.5234c0-0.33594 0.27344-0.60938 0.60938-0.60938h3.3555c0.33594 0 0.60938 0.27344 0.60938 0.60938v3.3555c0 0.33594-0.27344 0.60938-0.60938 0.60938h-3.3555c-0.33594 0-0.60938-0.27344-0.60938-0.60938z"></path><path d="m26.109 62.59c-1.6133 0-2.9258 1.3125-2.9258 2.9297 0 1.6133 1.3125 2.9297 2.9258 2.9297s2.9258-1.3125 2.9258-2.9297c0.003906-1.6133-1.3086-2.9297-2.9258-2.9297zm0 5.3008c-1.3086 0-2.3711-1.0625-2.3711-2.3711 0-1.3086 1.0664-2.3711 2.3711-2.3711 1.3086 0 2.3711 1.0625 2.3711 2.3711 0.003906 1.3086-1.0625 2.3711-2.3711 2.3711z"></path><path d="m24.434 58.602h3.3555c0.64453 0 1.168-0.52344 1.168-1.1641v-3.3555c0-0.64453-0.52344-1.168-1.168-1.168h-3.3555c-0.64453 0-1.168 0.52344-1.168 1.168v3.3555c0 0.64062 0.52344 1.1641 1.168 1.1641zm-0.60938-4.5234c0-0.33594 0.27344-0.60938 0.60938-0.60938h3.3555c0.33594 0 0.60938 0.27344 0.60938 0.60938v3.3555c0 0.33594-0.27344 0.60938-0.60938 0.60938h-3.3555c-0.33594 0-0.60938-0.27344-0.60938-0.60938z"></path><path d="m43.504 52.84h7.2852c0.15234 0 0.27734-0.125 0.27734-0.27734s-0.125-0.27734-0.27734-0.27734h-7.2852c-0.15234 0-0.27734 0.125-0.27734 0.27734s0.125 0.27734 0.27734 0.27734z"></path><path d="m55.707 52.84h0.78906c0.15234 0 0.27734-0.125 0.27734-0.27734s-0.125-0.27734-0.27734-0.27734h-0.78906c-0.15234 0-0.27734 0.125-0.27734 0.27734s0.125 0.27734 0.27734 0.27734z"></path><path d="m38.672 52.562c0 2.2305 1.8164 4.0469 4.0469 4.0469h3.4531v4.5742c0 2.1094 1.7188 3.8281 3.8281 3.8281s3.8281-1.7188 3.8281-3.8281v-4.5742h3.4531c2.2305 0 4.0469-1.8164 4.0469-4.0469s-1.8164-4.0469-4.0469-4.0469h-3.4531v-4.5742c0-2.1094-1.7188-3.8281-3.8281-3.8281s-3.8281 1.7188-3.8281 3.8281v4.5742h-3.4531c-2.2344 0-4.0469 1.8125-4.0469 4.0469zm7.7773-3.4922c0.15234 0 0.27734-0.125 0.27734-0.27734v-4.8516c0-1.8047 1.4688-3.2734 3.2734-3.2734s3.2734 1.4688 3.2734 3.2734v4.8516c0 0.15234 0.125 0.27734 0.27734 0.27734h3.7344c1.9258 0 3.4922 1.5664 3.4922 3.4883 0 1.9258-1.5664 3.4883-3.4922 3.4883h-3.7344c-0.15234 0-0.27734 0.125-0.27734 0.27734v4.8516c0 1.8047-1.4688 3.2734-3.2734 3.2734s-3.2734-1.4688-3.2734-3.2734v-4.8516c0-0.15234-0.125-0.27734-0.27734-0.27734h-3.7344c-1.9258 0-3.4922-1.5664-3.4922-3.4883 0-1.9258 1.5664-3.4883 3.4922-3.4883z"></path></g></g>
</svg>
</g></svg></svg>